<svg width="72" height="72" viewBox="0 0 72 72" fill="none" xmlns="http://www.w3.org/2000/svg">
<path fill-rule="evenodd" clip-rule="evenodd" d="M30.0123 31.4907C30.666 31.4907 31.195 32.0203 31.195 32.6735V63.8685C31.195 64.5217 30.666 65.0513 30.0123 65.0513H4.8788C4.22563 65.0513 3.69604 64.5217 3.69604 63.8685V32.6735C3.69604 32.0203 4.22563 31.4907 4.8788 31.4907H30.0123ZM6.06155 62.6858H28.8295V33.8562H6.06155V62.6858Z" fill="black"/>
<path d="M18.6358 66.0862H16.2651C15.6114 66.0862 15.0824 66.6158 15.0824 67.2689C15.0824 67.9221 15.6114 68.4517 16.2651 68.4517H18.6358C19.289 68.4517 19.8186 67.9221 19.8186 67.2689C19.8186 66.6158 19.289 66.0862 18.6358 66.0862Z" fill="black"/>
<path fill-rule="evenodd" clip-rule="evenodd" d="M68.3293 -2.11829e-05H52.2987C50.3207 -2.11829e-05 48.6407 1.54541 48.6407 3.5234V9.75768H12.2925C8.60213 9.76865 5.61695 12.7642 5.61811 16.454V27.7946H4.8939C2.16803 27.7946 3.85859e-05 30.062 3.85859e-05 32.7907V66.9588C-0.00746911 68.2594 0.505942 69.5092 1.4265 70.4286C2.34648 71.348 3.59623 71.8608 4.89679 71.8521H30.9826C32.0498 71.8614 33.0738 71.434 33.8182 70.6694C34.5609 69.9036 35.0391 68.9316 34.8912 67.8713V62.0944H62.467C66.1666 62.0881 69.1691 59.0983 69.191 55.3981V51.169C69.1737 50.5049 68.632 49.9747 67.9678 49.9712H66.2341V38.4394H68.3293C70.3073 38.4394 71.8522 36.7606 71.8522 34.7826V3.5234C71.8632 2.58552 71.4959 1.68344 70.8323 1.01987C70.1693 0.356883 69.2667 -0.010994 68.3293 -2.11829e-05ZM51.0062 7.68786H69.4867V28.8295H51.0062V7.68786ZM68.3294 2.36548H52.2987C51.6253 2.36548 51.0062 2.85002 51.0062 3.5234V5.32236H69.4867V3.5234C69.4988 3.21327 69.3804 2.91181 69.161 2.69178C68.9409 2.47232 68.6395 2.35393 68.3294 2.36548ZM7.98361 16.454C7.98072 14.07 9.90789 12.133 12.2925 12.1232H48.6407V15.5236H12.2197C11.5665 15.5236 11.0883 16.1179 11.0883 16.771V27.7946H7.98361V16.454ZM30.9826 69.4866C31.4209 69.5005 31.8454 69.333 32.1561 69.0235C32.4414 68.7249 32.5887 68.3212 32.5627 67.9094C32.5627 67.9034 32.5537 67.9014 32.5448 67.8993C32.5358 67.8973 32.5269 67.8953 32.5269 67.8892V32.7907C32.5269 31.3654 31.4273 30.1601 29.9985 30.1601H4.89679C3.47148 30.1601 2.36554 31.3654 2.36554 32.7942V66.9554C2.35688 67.6305 2.62138 68.2796 3.09841 68.7567C3.57601 69.2331 4.22572 69.4965 4.90083 69.4866H30.9826ZM30.002 27.7946H13.4538V17.8891H48.6407V34.7826C48.6707 36.7906 50.2912 38.4105 52.2987 38.4394H58.3984V49.9712H43.9963C43.6654 49.9741 43.3501 50.115 43.1266 50.3599L42.0102 51.5536C41.1902 52.4349 40.0392 52.9333 38.8351 52.9281H34.8912V32.7873C34.8912 30.062 32.7307 27.7946 30.002 27.7946ZM62.467 59.7289C64.8608 59.7237 66.8047 57.7925 66.8255 55.3981V52.3367H44.5149L43.7497 53.1533C42.4815 54.5209 40.6999 55.2965 38.8351 55.2936H34.8912V59.7289H62.467ZM63.8686 49.9712H60.7639V38.4394H63.8686V49.9712ZM52.2987 36.0739H68.3294C69.0027 36.0739 69.4867 35.4565 69.4867 34.7826V31.1951H51.0062V34.7826C51.0345 35.4843 51.5976 36.0468 52.2987 36.0739Z" fill="black"/>
<path d="M61.9467 32.23H58.8419C58.1888 32.23 57.6592 32.7596 57.6592 33.4127C57.6592 34.0659 58.1888 34.5955 58.8419 34.5955H61.9467C62.6004 34.5955 63.1294 34.0659 63.1294 33.4127C63.1294 32.7596 62.6004 32.23 61.9467 32.23Z" fill="black"/>
</svg>
